<svg id="kity_svg_6" xmlns="http://www.w3.org/2000/svg" xmlns:xlink="http://www.w3.org/1999/xlink" version="1.1" width="991" height="387" style="background: rgb(251, 251, 251); visibility: visible;" viewBox="0 0 991 387"><defs id="kity_defs_7"><linearGradient id="kity_linearGradient_17" x1="0" y1="0" x2="0" y2="1"><stop id="kity_stop_18" offset="0" stop-color="rgb(255, 255, 255)"></stop><stop id="kity_stop_19" offset="1" stop-color="rgb(204, 204, 204)"></stop></linearGradient><marker id="kity_marker_2" orient="auto" refX="6" refY="0" viewBox="-7 -7 14 14" markerWidth="7" markerHeight="7" markerUnits="userSpaceOnUse"><path id="kity_path_3" fill="rgb(115, 161, 191)" stroke="none" d="M6,0A6,6,0,1,1,-6,0A6,6,0,1,1,6,0"></path></marker></defs><g id="kity_g_8"><g id="minder1" text-rendering="optimize-speed"><g id="minder_connect_group1"><path id="kity_path_31" fill="none" stroke="rgb(115, 161, 191)" stroke-width="1" d="M357.5000085160136,269.5000045225024A210,1,0,0,0,567.5000085160136,270.5000045225024"></path><path id="kity_path_33" fill="none" stroke="rgb(115, 161, 191)" stroke-width="1" d="M672.5000085160136,270.5000045225024C712.0000085160136,270.5000045225024,712.0000085160136,159.50000452250242,751.5000085160136,159.50000452250242L827.5000085160136,159.50000452250242"></path><path id="kity_path_35" fill="none" stroke="rgb(115, 161, 191)" stroke-width="1" d="M827.5000085160136,159.50000452250242C841.0000085160136,159.50000452250242,841.0000085160136,45.50000452250242,854.5000085160136,45.50000452250242L945.5000085160136,45.50000452250242"></path><path id="kity_path_37" fill="none" stroke="rgb(115, 161, 191)" stroke-width="1" d="M827.5000085160136,159.50000452250242C842.5000085160136,159.50000452250242,842.5000085160136,123.50000452250242,857.5000085160136,123.50000452250242L946.5000085160136,123.50000452250242"></path><path id="kity_path_39" fill="none" stroke="rgb(115, 161, 191)" stroke-width="1" d="M827.5000085160136,159.50000452250242C842.5000085160136,159.50000452250242,842.5000085160136,211.50000452250242,857.5000085160136,211.50000452250242L971.5000085160136,211.50000452250242"></path><path id="kity_path_41" fill="none" stroke="rgb(115, 161, 191)" stroke-width="1" d="M672.5000085160136,270.5000045225024C710.0000085160136,270.5000045225024,710.0000085160136,367.5000045225024,747.5000085160136,367.5000045225024L820.5000085160136,367.5000045225024"></path><path id="kity_path_43" fill="none" stroke="rgb(115, 161, 191)" stroke-width="1" d="M357.5000085160136,269.5000045225024A228,0,0,0,1,129.50000851601362,269.5000045225024"></path></g><g id="minder_node1"><path id="node_outline1" fill="rgb(115, 161, 191)" stroke="rgb(115, 161, 191)" d="M252.50000851601362,249.50000452250242h210a5,5,0,0,1,5,5v30a5,5,0,0,1,-5,5h-210a5,5,0,0,1,-5,-5v-30a5,5,0,0,1,5,-5z" stroke-width="3"></path><g id="node_text1" fill="white"><text id="kity_text_22" text-rendering="inherit" font-size="16" dy=".8em" y="259.10000448673964" x="271.5000085160136">changeGame-规则之舟</text></g></g><g id="kity_g_12"><path id="kity_path_13" fill="none" stroke="none" d="M271.5000085160136,269.5000045225024h0v0h0z"></path></g><g id="kity_g_14"><path id="kity_path_15" fill="none" stroke="none" d="M271.5000085160136,269.5000045225024h0v0h0z"></path><path id="kity_path_16" fill="none" stroke="none"></path></g><g id="minder_node2"><g id="node_expander6" style="cursor: pointer;"><path id="kity_path_90" fill="white" stroke="gray" d="M568.5000128522515,270.5000045374036A6,6,0,1,1,556.5000128522515,270.5000045374036A6,6,0,1,1,568.5000128522515,270.5000045374036"></path><path id="kity_path_91" fill="none" stroke="gray" d="M558.0000128522515,270.5000045374036L567.0000128522515,270.5000045374036"></path></g><path id="node_outline7" fill="rgb(238, 243, 246)" stroke="rgb(115, 161, 191)" d="M572.5000132545829,257.5000045374036h97a3,3,0,0,1,3,3v20a3,3,0,0,1,-3,3h-97a3,3,0,0,1,-3,-3v-20a3,3,0,0,1,3,-3z" stroke-width="1"></path><g id="node_text7" fill="black"><text id="kity_text_55" text-rendering="inherit" font-size="14" dy=".8em" y="261.40000450611115" x="589.5000132545829">Back-end</text></g></g><g id="minder_node3"><g id="node_expander4" style="cursor: pointer;"><path id="kity_path_84" fill="white" stroke="gray" d="M761.5000157281756,143.00000263750553A6,6,0,1,1,749.5000157281756,143.00000263750553A6,6,0,1,1,761.5000157281756,143.00000263750553"></path><path id="kity_path_85" fill="none" stroke="gray" d="M751.0000157281756,143.00000263750553L760.0000157281756,143.00000263750553"></path></g><path id="node_outline5" fill="none" stroke="none" d="M766.5000159665942,129.50000263005495h56a5,5,0,0,1,5,5v17a5,5,0,0,1,-5,5h-56a5,5,0,0,1,-5,-5v-17a5,5,0,0,1,5,-5z"></path><g id="node_text5" fill="black"><text id="kity_text_51" text-rendering="inherit" font-size="12" dy=".8em" y="134.70000260323286" x="771.5000159665942">user</text></g><g id="kity_g_61" style="cursor: pointer;"><path id="kity_path_62" fill="none" stroke="none" d="M804.000016413629,134.00000263005495h12a2,2,0,0,1,2,2v13a2,2,0,0,1,-2,2h-12a2,2,0,0,1,-2,-2v-13a2,2,0,0,1,2,-2z"></path><path id="kity_path_63" fill="black" stroke="none" d="M813.000016450882,145.0000025331974H807.000016450882V144.0000025331974h6L813.000016450882,145.0000025331974L813.000016450882,145.0000025331974zM813.000016450882,143.0000025331974H807.000016450882V142.0000025331974h6V143.0000025331974zM813.000016450882,141.0000025331974H807.000016450882V140.0000025331974h6V141.0000025331974zM812.500016450882,147.0000025331974H806.000016450882V138.0000025331974h8v7.5M813.000016450882,148.0000025331974l2,-2V137.0000025331974H805.000016450882v11"></path></g></g><g id="minder_node4"><g id="node_expander1" display="none" style="cursor: pointer;"><path id="kity_path_75" fill="white" stroke="gray" d="M864.5000172629952,31.500000976026058A6,6,0,1,1,852.5000172629952,31.500000976026058A6,6,0,1,1,864.5000172629952,31.500000976026058"></path><path id="kity_path_76" fill="none" stroke="gray"></path></g><path id="node_outline2" fill="none" stroke="none" d="M869.5000175014138,20.500000976026058h71a5,5,0,0,1,5,5v12a5,5,0,0,1,-5,5h-71a5,5,0,0,1,-5,-5v-12a5,5,0,0,1,5,-5z"></path><g id="node_text2" fill="black"><text id="kity_text_45" text-rendering="inherit" font-size="12" dy=".8em" y="23.700000949203968" x="874.5000175014138">create rule</text></g></g><g id="minder_node5"><g id="node_expander2" display="none" style="cursor: pointer;"><path id="kity_path_78" fill="white" stroke="gray" d="M867.5000173076987,109.50000213831663A6,6,0,1,1,855.5000173076987,109.50000213831663A6,6,0,1,1,867.5000173076987,109.50000213831663"></path><path id="kity_path_79" fill="none" stroke="gray"></path></g><path id="node_outline3" fill="none" stroke="none" d="M872.5000175461173,98.50000213831663h69a5,5,0,0,1,5,5v12a5,5,0,0,1,-5,5h-69a5,5,0,0,1,-5,-5v-12a5,5,0,0,1,5,-5z"></path><g id="node_text3" fill="black"><text id="kity_text_47" text-rendering="inherit" font-size="12" dy=".8em" y="101.70000211149454" x="877.5000175461173">invite user</text></g></g><g id="minder_node6"><g id="node_expander3" display="none" style="cursor: pointer;"><path id="kity_path_81" fill="white" stroke="gray" d="M867.5000173076987,195.0000034123659A6,6,0,1,1,855.5000173076987,195.0000034123659A6,6,0,1,1,867.5000173076987,195.0000034123659"></path><path id="kity_path_82" fill="none" stroke="gray"></path></g><path id="node_outline4" fill="none" stroke="none" d="M872.5000175461173,181.50000340491533h94a5,5,0,0,1,5,5v17a5,5,0,0,1,-5,5h-94a5,5,0,0,1,-5,-5v-17a5,5,0,0,1,5,-5z"></path><g id="node_text4" fill="black"><text id="kity_text_49" text-rendering="inherit" font-size="12" dy=".8em" y="186.70000337809324" x="877.5000175461173">user habits</text></g><g id="kity_g_58" style="cursor: pointer;"><path id="kity_path_59" fill="none" stroke="none" d="M948.0000185593963,186.00000340491533h12a2,2,0,0,1,2,2v13a2,2,0,0,1,-2,2h-12a2,2,0,0,1,-2,-2v-13a2,2,0,0,1,2,-2z"></path><path id="kity_path_60" fill="black" stroke="none" d="M957.0000185966492,197.00000330805779H951.0000185966492V196.00000330805779h6L957.0000185966492,197.00000330805779L957.0000185966492,197.00000330805779zM957.0000185966492,195.00000330805779H951.0000185966492V194.00000330805779h6V195.00000330805779zM957.0000185966492,193.00000330805779H951.0000185966492V192.00000330805779h6V193.00000330805779zM956.5000185966492,199.00000330805779H950.0000185966492V190.00000330805779h8v7.5M957.0000185966492,200.00000330805779l2,-2V189.00000330805779H949.0000185966492v11"></path></g></g><g id="minder_node7"><g id="node_expander5" style="cursor: pointer;" display="none"><path id="kity_path_87" fill="white" stroke="gray" d="M757.500015668571,351.00000573694706A6,6,0,1,1,745.500015668571,351.00000573694706A6,6,0,1,1,757.500015668571,351.00000573694706"></path><path id="kity_path_88" fill="none" stroke="gray"></path></g><path id="node_outline6" fill="none" stroke="none" d="M762.5000159069896,337.5000057294965h53a5,5,0,0,1,5,5v17a5,5,0,0,1,-5,5h-53a5,5,0,0,1,-5,-5v-17a5,5,0,0,1,5,-5z" stroke-width="3"></path><g id="node_text6" fill="black"><text id="kity_text_53" text-rendering="inherit" font-size="12" dy=".8em" y="342.7000057026744" x="767.5000159069896">rule</text></g><g id="kity_g_64" style="cursor: pointer;"><path id="kity_path_65" fill="none" stroke="none" d="M797.0000163093209,342.0000057294965h12a2,2,0,0,1,2,2v13a2,2,0,0,1,-2,2h-12a2,2,0,0,1,-2,-2v-13a2,2,0,0,1,2,-2z"></path><path id="kity_path_66" fill="black" stroke="none" d="M806.0000163465738,353.00000563263893H800.0000163465738V352.00000563263893h6L806.0000163465738,353.00000563263893L806.0000163465738,353.00000563263893zM806.0000163465738,351.00000563263893H800.0000163465738V350.00000563263893h6V351.00000563263893zM806.0000163465738,349.00000563263893H800.0000163465738V348.00000563263893h6V349.00000563263893zM805.5000163465738,355.00000563263893H799.0000163465738V346.00000563263893h8v7.5M806.0000163465738,356.00000563263893l2,-2V345.00000563263893H798.0000163465738v11"></path></g></g><g id="minder_node8"><g id="node_expander7" display="none" style="cursor: pointer;"><path id="kity_path_93" fill="white" stroke="gray" d="M140.50000647455454,269.5000045225024A6,6,0,1,1,128.50000647455454,269.5000045225024A6,6,0,1,1,140.50000647455454,269.5000045225024"></path><path id="kity_path_94" fill="none" stroke="gray"></path></g><path id="node_outline8" fill="rgb(238, 243, 246)" stroke="rgb(115, 161, 191)" d="M23.500005073845387,256.5000045225024h101a3,3,0,0,1,3,3v20a3,3,0,0,1,-3,3h-101a3,3,0,0,1,-3,-3v-20a3,3,0,0,1,3,-3z" stroke-width="1"></path><g id="node_text8" fill="black"><text id="kity_text_57" text-rendering="inherit" font-size="14" dy=".8em" y="260.40000449121" x="40.50000507384539">Front-end</text></g></g></g></g></svg>